<svg width="163" height="49" viewBox="0 0 163 49" fill="none" xmlns="http://www.w3.org/2000/svg">
<path d="M0 48.3965H43.2506V16.2909H19.3773V18.8239H40.7177V45.8635H2.53298V2.99279H43.1873V0.396484H0V48.3965Z" fill="white"/>
<path d="M65.478 13.6948C65.2247 12.555 64.2749 11.0352 61.9952 11.0352C59.2089 11.0352 58.0691 13.5049 58.0691 15.9112C58.0691 18.3175 59.2089 20.7872 61.9952 20.7872C63.8316 20.7872 65.478 19.4574 65.478 17.5576H62.0585V15.278H67.821V22.8769H65.5414V21.6104C64.6548 22.6236 63.135 23.1302 61.8685 23.1302C57.4358 23.1302 55.2195 19.774 55.2195 15.8479C55.2195 11.9218 57.6891 8.56555 61.8685 8.56555C64.6548 8.56555 66.7445 9.95869 67.7577 12.6183L65.478 13.6948Z" fill="white"/>
<path d="M72 34.0851V32.7552H73.6464V34.0851H72Z" fill="white"/>
<path d="M72.0633 40.3542V35.2249H73.5831V40.3542H72.0633Z" fill="white"/>
<path fill-rule="evenodd" clip-rule="evenodd" d="M59.5886 33.1987L56.9289 40.3544H58.5754L59.082 38.8979H61.9316L62.4382 40.3544H64.1479L61.4883 33.1987H59.5886ZM59.5252 37.6314L60.5384 34.6552L61.5516 37.6314H59.5252Z" fill="white"/>
<path fill-rule="evenodd" clip-rule="evenodd" d="M66.871 41.4307C66.681 41.3041 66.5544 41.1141 66.5544 40.9241H65.0979C65.1612 41.494 65.4145 42.0006 65.8578 42.2539C66.3011 42.5706 66.871 42.6972 67.6309 42.6972C68.4541 42.6972 69.1507 42.5072 69.6573 42.064C70.1639 41.684 70.4172 40.9874 70.4172 40.0376V35.2249H68.8974V35.9215H68.8341C68.7707 35.6049 68.5174 35.4149 68.2641 35.2882C68.0108 35.1616 67.6942 35.0983 67.3143 35.0983C66.6177 35.0983 66.1111 35.2882 65.6045 35.7948C65.1612 36.3014 64.9079 36.998 64.9079 37.8212C64.9079 38.6444 65.1612 39.341 65.6045 39.7843C66.0478 40.2276 66.6177 40.4175 67.2509 40.4175C67.6309 40.4175 67.9475 40.4175 68.2641 40.2276C68.5808 40.0376 68.7707 39.8476 68.8974 39.5943H68.9607V40.0376C68.9607 40.6075 68.8974 40.9874 68.6441 41.2407C68.3908 41.494 68.0742 41.6207 67.6309 41.6207C67.3143 41.6207 67.061 41.5574 66.871 41.4307ZM67.6942 39.4043C67.3776 39.4043 67.061 39.2144 66.871 38.9611C66.6177 38.6444 66.5544 38.3278 66.5544 37.8212C66.5544 37.3146 66.681 36.998 66.871 36.6814C67.061 36.3648 67.3776 36.2381 67.6942 36.2381C68.0108 36.2381 68.2641 36.4281 68.5174 36.6814C68.7074 36.9347 68.8341 37.3146 68.8341 37.7579V37.8845C68.8341 38.3278 68.7074 38.7078 68.5174 38.9611C68.3275 39.2777 68.0108 39.4043 67.6942 39.4043Z" fill="white"/>
<path d="M75.2292 32.7552V40.3542H76.749V32.7552H75.2292Z" fill="white"/>
<path fill-rule="evenodd" clip-rule="evenodd" d="M78.776 35.8582C79.2826 35.3516 79.9792 35.0983 80.7391 35.0983C81.5623 35.0983 82.1955 35.2882 82.6388 35.7315C83.1454 36.1748 83.3354 36.808 83.3354 37.6312V38.0112H79.5359C79.5992 38.4545 79.7259 38.7711 79.9158 38.9611C80.1058 39.151 80.4224 39.2777 80.7391 39.2777C81.0557 39.2777 81.309 39.2144 81.4989 39.0877C81.6889 38.9611 81.7522 38.8344 81.8156 38.7078H83.3354C83.272 39.151 83.0187 39.531 82.5121 39.9109C82.0689 40.2276 81.4989 40.4175 80.8024 40.4175C79.9158 40.4175 79.2826 40.2276 78.776 39.7843C78.2694 39.341 78.0161 38.6444 78.0161 37.8212C78.0161 36.998 78.2694 36.3648 78.776 35.8582ZM79.9792 36.4281C79.7892 36.6181 79.6625 36.8714 79.5992 37.188H81.7522C81.6889 36.8714 81.5623 36.6181 81.4356 36.4281C81.2457 36.2381 80.9923 36.1748 80.7391 36.1748C80.4857 36.1748 80.1691 36.2381 79.9792 36.4281Z" fill="white"/>
<path d="M84.6013 38.7714V40.3545H86.3111V38.7714H84.6013Z" fill="white"/>
<path d="M92.8337 33.1987H94.4801V37.4415C94.4801 38.0114 94.6068 38.3913 94.8601 38.708C95.1134 38.9613 95.4933 39.1512 96.0633 39.1512C96.5699 39.1512 96.9498 39.0246 97.2664 38.708C97.5197 38.4547 97.6464 38.0114 97.6464 37.4415V33.1987H99.2295V37.4415C99.2295 38.5813 98.9129 39.3412 98.3429 39.7845C97.773 40.2278 97.0131 40.4177 96.0633 40.4177C95.1134 40.4177 94.3535 40.2278 93.7836 39.7845C93.2137 39.3412 92.897 38.5813 92.897 37.4415L92.8337 33.1987Z" fill="white"/>
<path d="M100.813 35.2249V40.3542L102.396 40.4176V37.6946C102.396 37.2513 102.522 36.9347 102.712 36.6814C102.902 36.4914 103.156 36.3648 103.472 36.3648C103.726 36.3648 103.916 36.4914 104.106 36.6181C104.296 36.7447 104.359 37.0614 104.359 37.5046V40.4176H105.942V37.3147C105.942 36.5548 105.815 35.9848 105.372 35.6682C104.929 35.2883 104.486 35.1616 103.979 35.1616C103.599 35.1616 103.282 35.2249 103.029 35.3516C102.712 35.4782 102.522 35.7315 102.396 35.9848H102.333V35.2249H100.813Z" fill="white"/>
<path d="M108.538 38.8978C108.538 39.1511 108.665 39.2777 108.855 39.4044C109.045 39.531 109.298 39.531 109.488 39.531C109.805 39.531 110.058 39.4677 110.248 39.4044C110.438 39.2777 110.501 39.1511 110.501 38.9611C110.501 38.7711 110.438 38.6445 110.311 38.5811C110.185 38.5178 109.995 38.4545 109.741 38.4545L108.855 38.3278C108.348 38.2645 107.968 38.1379 107.652 37.8846C107.335 37.6946 107.209 37.3147 107.209 36.8714C107.209 36.3015 107.398 35.9215 107.842 35.6049C108.285 35.3516 108.855 35.1616 109.552 35.1616C110.248 35.1616 110.818 35.2883 111.198 35.5416C111.641 35.7949 111.831 36.1748 111.831 36.6814H110.438C110.438 36.4914 110.311 36.3015 110.185 36.2381C109.995 36.1748 109.805 36.1115 109.552 36.1115C109.298 36.1115 109.108 36.1748 108.918 36.2381C108.728 36.3648 108.665 36.4281 108.665 36.5548C108.665 36.6814 108.728 36.8081 108.855 36.8714C108.948 36.9641 109.074 36.9889 109.235 37.0204C109.294 37.032 109.357 37.0444 109.425 37.0614L110.311 37.188C110.755 37.2513 111.135 37.378 111.451 37.6313C111.768 37.8213 111.958 38.2012 111.958 38.7078C111.958 39.2777 111.705 39.721 111.198 40.0376C110.691 40.2909 110.121 40.4809 109.425 40.4809C108.728 40.4809 108.158 40.3542 107.715 40.1009C107.272 39.8476 107.019 39.4677 107.019 38.8978H108.538Z" fill="white"/>
<path d="M112.655 36.3648H113.604V38.3912C113.604 39.0878 113.794 39.5944 114.048 39.8477C114.301 40.1643 114.808 40.291 115.567 40.291H116.391V39.0878H115.884C115.567 39.0878 115.441 39.0245 115.314 38.8978C115.251 38.7712 115.187 38.5812 115.187 38.3279V36.3648H116.391V35.225H115.187V33.7052H113.604V35.225H112.655V36.3648Z" fill="white"/>
<path fill-rule="evenodd" clip-rule="evenodd" d="M118.1 35.7948C118.607 35.2882 119.304 35.0983 120.127 35.0983C120.95 35.0983 121.647 35.3516 122.153 35.7948C122.66 36.2381 122.913 36.9347 122.913 37.7579C122.913 38.5811 122.66 39.2777 122.09 39.721C121.583 40.2276 120.887 40.4175 120.127 40.4175C119.304 40.4175 118.607 40.1642 118.1 39.721C117.594 39.2777 117.341 38.5811 117.341 37.7579C117.277 36.9347 117.53 36.3014 118.1 35.7948ZM119.24 38.8977C119.43 39.151 119.747 39.341 120.127 39.341C120.443 39.341 120.76 39.2144 121.013 38.8977C121.203 38.6444 121.33 38.2645 121.33 37.7579C121.33 37.2513 121.203 36.8714 121.013 36.6181C120.823 36.3648 120.507 36.1748 120.127 36.1748C119.81 36.1748 119.494 36.3014 119.24 36.6181C119.05 36.8714 118.924 37.2513 118.924 37.7579C118.86 38.2645 118.987 38.6444 119.24 38.8977Z" fill="white"/>
<path fill-rule="evenodd" clip-rule="evenodd" d="M124.116 42.6339H125.699L125.763 41.3041V40.5442C125.763 40.2276 125.763 39.9109 125.699 39.5943H125.763C125.889 39.9109 126.079 40.1009 126.333 40.2276C126.586 40.3542 126.902 40.4175 127.282 40.4175C127.979 40.4175 128.549 40.2276 128.992 39.721C129.435 39.2144 129.689 38.5811 129.689 37.6946C129.689 36.8714 129.435 36.1748 128.992 35.7315C128.549 35.2882 127.979 35.0983 127.346 35.0983C126.966 35.0983 126.586 35.1616 126.333 35.2882C126.016 35.4782 125.826 35.6682 125.699 35.9215H125.636V35.2249H124.116V42.6339ZM126.902 36.2381C127.219 36.2381 127.536 36.4281 127.726 36.6814C127.979 36.9347 128.042 37.3146 128.042 37.8212C128.042 38.3278 127.916 38.6444 127.726 38.9611C127.536 39.2777 127.282 39.4043 126.902 39.4043C126.523 39.4043 126.269 39.2144 126.016 38.9611C125.826 38.6444 125.699 38.2645 125.699 37.8212V37.7579C125.699 37.3146 125.763 36.9347 126.016 36.6814C126.269 36.3648 126.586 36.2381 126.902 36.2381Z" fill="white"/>
<path fill-rule="evenodd" clip-rule="evenodd" d="M132.475 42.6339H130.892V35.2249H132.412V35.9215H132.475C132.602 35.6682 132.792 35.4782 133.108 35.2882C133.361 35.1616 133.741 35.0983 134.121 35.0983C134.755 35.0983 135.325 35.2882 135.768 35.7315C136.211 36.1748 136.464 36.8714 136.464 37.6946C136.464 38.5811 136.211 39.2144 135.768 39.721C135.325 40.2276 134.755 40.4175 134.058 40.4175C133.678 40.4175 133.361 40.3542 133.108 40.2276C132.855 40.1009 132.665 39.9109 132.538 39.5943H132.475C132.538 39.9109 132.538 40.2276 132.538 40.5442V41.3041L132.475 42.6339ZM134.501 36.6814C134.311 36.4281 133.995 36.2381 133.678 36.2381C133.361 36.2381 133.045 36.3648 132.792 36.6814C132.538 36.9347 132.475 37.3146 132.475 37.7579V37.8212C132.475 38.2645 132.602 38.6444 132.792 38.9611C133.045 39.2144 133.298 39.4043 133.678 39.4043C134.058 39.4043 134.311 39.2777 134.501 38.9611C134.691 38.6444 134.818 38.3278 134.818 37.8212C134.818 37.3146 134.691 36.9347 134.501 36.6814Z" fill="white"/>
<path fill-rule="evenodd" clip-rule="evenodd" d="M139.187 37.5047C138.617 37.568 138.111 37.758 137.857 38.0113C137.541 38.2646 137.414 38.5812 137.414 39.1511C137.414 39.531 137.604 39.911 137.857 40.1643C138.174 40.4809 138.617 40.6076 139.187 40.6076C139.567 40.6076 139.884 40.5442 140.2 40.4176C140.517 40.2909 140.707 40.101 140.834 39.8477H140.897V40.4809H142.29V37.1247C142.29 36.4915 142.1 36.0482 141.72 35.7316C141.34 35.3516 140.77 35.225 139.947 35.225C139.314 35.225 138.807 35.3516 138.364 35.6682C137.921 35.9849 137.667 36.4281 137.604 36.9981H139.06C139.06 36.7448 139.187 36.5548 139.314 36.4281C139.44 36.3015 139.694 36.2382 139.947 36.2382C140.264 36.2382 140.454 36.2382 140.58 36.4281C140.707 36.6181 140.77 36.8081 140.77 36.9981C140.77 37.1247 140.707 37.188 140.644 37.2514C140.604 37.2905 140.517 37.3055 140.396 37.3261C140.321 37.3389 140.234 37.3538 140.137 37.378L139.187 37.5047ZM140.58 38.0746L140.77 37.8846V38.3279C140.77 38.7078 140.707 38.9611 140.454 39.1511C140.2 39.3411 139.947 39.4044 139.694 39.4044C139.44 39.4044 139.314 39.4044 139.187 39.2777C139.06 39.1511 138.997 39.0244 138.997 38.8345C138.997 38.7078 138.997 38.5812 139.124 38.4545C139.187 38.3912 139.377 38.3279 139.63 38.2646L140.327 38.1379C140.39 38.1379 140.517 38.1379 140.58 38.0746Z" fill="white"/>
<path fill-rule="evenodd" clip-rule="evenodd" d="M143.873 40.3542V32.7552H145.456V35.0349C145.456 35.1932 145.441 35.3516 145.425 35.5099C145.409 35.6682 145.393 35.8265 145.393 35.9848H145.456C145.583 35.7315 145.773 35.5415 146.09 35.3516C146.343 35.2249 146.723 35.1616 147.103 35.1616C147.736 35.1616 148.306 35.3516 148.749 35.7948C149.193 36.2381 149.446 36.9347 149.446 37.7579C149.446 38.6444 149.193 39.2777 148.749 39.7843C148.306 40.2909 147.736 40.4808 147.039 40.4808C146.66 40.4808 146.343 40.4175 146.09 40.2909C145.836 40.1642 145.646 39.9742 145.52 39.6576H145.456V40.3542H143.873ZM145.456 37.8212C145.456 38.2645 145.583 38.6444 145.773 38.9611C146.026 39.2144 146.28 39.4043 146.66 39.4043C147.039 39.4043 147.293 39.2777 147.483 38.9611C147.673 38.6444 147.799 38.3278 147.799 37.8212C147.799 37.3779 147.673 36.998 147.483 36.7447C147.293 36.4914 146.976 36.3014 146.66 36.3014C146.343 36.3014 146.026 36.4281 145.773 36.7447C145.52 36.998 145.456 37.3779 145.456 37.8212Z" fill="white"/>
<path d="M150.649 32.7552V40.3542H152.232V32.7552H150.649Z" fill="white"/>
<path fill-rule="evenodd" clip-rule="evenodd" d="M154.195 35.8582C154.702 35.3516 155.398 35.0983 156.158 35.0983C156.981 35.0983 157.614 35.2882 158.058 35.7315C158.564 36.1748 158.754 36.808 158.754 37.6312V38.0112H154.955C155.018 38.4545 155.145 38.7711 155.335 38.9611C155.525 39.151 155.841 39.2777 156.158 39.2777C156.475 39.2777 156.728 39.2144 156.918 39.0877C157.108 38.9611 157.171 38.8344 157.234 38.7078H158.754C158.691 39.151 158.438 39.531 157.931 39.9109C157.488 40.2276 156.918 40.4175 156.221 40.4175C155.335 40.4175 154.702 40.2276 154.195 39.7843C153.688 39.341 153.435 38.6444 153.435 37.8212C153.435 36.998 153.752 36.3648 154.195 35.8582ZM155.461 36.4281C155.271 36.6181 155.145 36.8714 155.081 37.188H157.234C157.171 36.8714 157.045 36.6181 156.918 36.4281C156.728 36.2381 156.475 36.1748 156.221 36.1748C155.905 36.1748 155.651 36.2381 155.461 36.4281Z" fill="white"/>
<path d="M160.084 38.7714V40.3545H161.794V38.7714H160.084Z" fill="white"/>
<path fill-rule="evenodd" clip-rule="evenodd" d="M74.66 23.0669C77.8262 23.0669 79.6626 20.8505 79.6626 17.8743C79.6626 14.9613 77.8262 12.745 74.66 12.6816C71.4938 12.6816 69.6573 14.898 69.6573 17.8743C69.6573 20.8505 71.4938 23.0669 74.66 23.0669ZM74.5966 20.8505C72.9502 20.8505 72.0637 19.394 72.0637 17.8743C72.0637 16.3545 72.8869 14.9613 74.5966 14.898C76.2431 14.898 77.1296 16.3545 77.1296 17.8743C77.1296 19.394 76.2431 20.8505 74.5966 20.8505Z" fill="white"/>
<path d="M81.3093 12.9349H83.6523V14.2648H83.7156C84.2856 13.1249 85.3621 12.6816 86.7552 12.6816V15.088C85.1721 15.088 83.6523 15.8479 83.6523 18.0009V22.8136H81.3093V12.9349Z" fill="white"/>
<path d="M90.7445 12.935H88.4015V22.8136H90.7445V12.935Z" fill="white"/>
<path d="M90.7445 8.94556H88.4015V11.3519H90.7445V8.94556Z" fill="white"/>
<path d="M95.2406 8.94556H92.8976V22.8136H95.2406V8.94556Z" fill="white"/>
<path d="M97.5835 8.94556H99.9265V22.8136H97.5835V8.94556Z" fill="white"/>
<path fill-rule="evenodd" clip-rule="evenodd" d="M110.502 21.1672C110.502 22.1804 110.755 22.6237 110.882 22.8136H108.412C108.222 22.5603 108.159 22.1804 108.159 21.9271C107.272 22.687 106.196 23.0669 104.992 23.0669C103.093 23.0669 101.636 21.8638 101.636 19.964C101.636 18.0643 103.156 17.1778 104.612 16.8611L105.626 16.6712C105.892 16.6142 106.175 16.5572 106.458 16.5002C107.118 16.3672 107.779 16.2342 108.222 16.1012V15.8479C108.222 14.8981 107.399 14.5814 106.322 14.5814C104.929 14.5814 104.486 15.0247 104.486 16.1012L102.143 15.9746C102.143 13.6316 104.169 12.745 106.322 12.745C108.475 12.745 110.565 13.1883 110.565 15.9746L110.502 21.1672ZM108.159 17.8743C107.842 18.001 107.462 18.1276 107.019 18.1909L105.689 18.4442C104.802 18.6342 104.043 18.8875 104.043 19.7741C104.043 20.534 104.739 20.9772 105.562 20.9772C106.702 20.9772 108.095 20.4073 108.095 19.2041L108.159 17.8743Z" fill="white"/>
<path d="M119.684 8.94556H117.088V22.877H125.257V20.4073H119.684V8.94556Z" fill="white"/>
<path fill-rule="evenodd" clip-rule="evenodd" d="M136.338 17.8743C136.338 20.8505 134.502 23.0669 131.335 23.0669C128.169 23.0669 126.333 20.8505 126.333 17.8743C126.333 14.898 128.169 12.6816 131.335 12.6816C134.502 12.745 136.338 14.9613 136.338 17.8743ZM128.739 17.8743C128.739 19.394 129.626 20.8505 131.272 20.8505C132.919 20.8505 133.805 19.394 133.805 17.8743C133.805 16.3545 132.919 14.898 131.272 14.898C129.626 14.9613 128.739 16.3545 128.739 17.8743Z" fill="white"/>
<path fill-rule="evenodd" clip-rule="evenodd" d="M141.911 26.1065C144.95 26.1065 147.04 25.4099 147.04 22.6237V12.9983H144.697V13.9482H144.634C144.064 13.2516 143.241 12.745 141.847 12.745C139.441 12.745 137.605 14.5814 137.605 17.5577C137.605 20.534 139.378 22.3704 141.847 22.3704C142.671 22.3704 143.874 22.1171 144.634 21.2938V22.307C144.634 23.5102 143.937 24.2701 142.417 24.2701C141.214 24.2701 140.581 23.7635 140.391 23.0669H137.921C137.921 24.2701 138.871 26.1065 141.911 26.1065ZM140.074 17.5577C140.074 16.5445 140.644 14.9614 142.417 14.9614C144.254 14.9614 144.76 16.4812 144.76 17.5577C144.76 18.5709 144.19 20.154 142.417 20.154C140.644 20.154 140.138 18.5709 140.074 17.5577Z" fill="white"/>
<path d="M149.003 12.935H151.346V22.8136H149.003V12.935Z" fill="white"/>
<path d="M149.003 8.94556H151.346V11.3519H149.003V8.94556Z" fill="white"/>
<path d="M158.122 14.898C159.072 14.898 159.895 15.5313 160.212 16.4811L162.301 15.4679C161.668 14.0115 160.528 12.6816 158.122 12.6816C154.956 12.6816 153.119 14.898 153.119 17.8743C153.119 20.8505 154.956 23.0669 157.995 23.0669C160.655 23.0669 161.795 21.4838 162.428 20.0273L160.402 18.9508C160.022 19.8373 159.388 20.8505 157.995 20.8505C156.349 20.8505 155.589 19.394 155.589 17.8743C155.589 16.3545 156.412 14.898 158.122 14.898Z" fill="white"/>
<path d="M32.4222 37.6946H10.4485V10.9717H43.1873V13.5046H12.9815V35.1616H29.8892V29.5257H19.3773V26.9928H32.4222V37.6946Z" fill="white"/>
<path d="M37.8681 43.1405H5.12935V5.58907H43.1874V8.18537H7.66233V40.6075H35.3351V24.2698H19.3774V21.6735H37.8681V43.1405Z" fill="white"/>
<path fill-rule="evenodd" clip-rule="evenodd" d="M161.034 33.1985H160.527V34.0217H160.781V33.7684H160.907L161.097 34.0217H161.35L161.16 33.7051C161.287 33.6418 161.35 33.5785 161.35 33.4518C161.35 33.3252 161.224 33.1985 161.034 33.1985ZM160.781 33.5151V33.3252L160.97 33.2618C161.034 33.2618 161.097 33.3252 161.097 33.3885C161.097 33.4518 161.034 33.5151 160.97 33.5151H160.781Z" fill="white"/>
<path fill-rule="evenodd" clip-rule="evenodd" d="M160.97 34.5283C161.54 34.5283 161.857 34.1484 161.857 33.6418C161.857 33.1352 161.477 32.7552 160.97 32.7552C160.464 32.7552 160.084 33.0719 160.084 33.6418C160.084 34.1484 160.401 34.5283 160.97 34.5283ZM161.604 33.6418C161.604 34.0217 161.35 34.3384 160.97 34.3384C160.527 34.3384 160.337 34.0851 160.337 33.6418C160.337 33.1985 160.591 32.9452 160.97 32.9452C161.35 32.9452 161.604 33.2618 161.604 33.6418Z" fill="white"/>
</svg>
